<svg width="103" height="35" viewBox="0 0 103 35" fill="none" xmlns="http://www.w3.org/2000/svg">
<rect width="103" height="35" rx="5" fill="#5C5C5C"/>
<path d="M20.856 19.428H17.592L17.052 21H15.264L18.228 12.6H20.232L23.184 21H21.396L20.856 19.428ZM20.424 18.132L19.224 14.64L18.036 18.132H20.424ZM26.9769 14.256C27.4489 14.256 27.8689 14.356 28.2369 14.556C28.6049 14.756 28.9009 15.032 29.1249 15.384V12.12H30.8049V21H29.1249V19.884C28.8929 20.26 28.5929 20.556 28.2249 20.772C27.8649 20.988 27.4489 21.096 26.9769 21.096C26.4089 21.096 25.8889 20.952 25.4169 20.664C24.9529 20.368 24.5809 19.96 24.3009 19.44C24.0289 18.92 23.8929 18.328 23.8929 17.664C23.8929 17 24.0289 16.412 24.3009 15.9C24.5809 15.38 24.9529 14.976 25.4169 14.688C25.8889 14.4 26.4089 14.256 26.9769 14.256ZM27.3609 15.72C27.0649 15.72 26.7809 15.796 26.5089 15.948C26.2449 16.1 26.0289 16.324 25.8609 16.62C25.6929 16.908 25.6089 17.256 25.6089 17.664C25.6089 18.072 25.6929 18.428 25.8609 18.732C26.0289 19.028 26.2449 19.252 26.5089 19.404C26.7809 19.556 27.0649 19.632 27.3609 19.632C27.6649 19.632 27.9489 19.556 28.2129 19.404C28.4849 19.252 28.7049 19.028 28.8729 18.732C29.0409 18.436 29.1249 18.084 29.1249 17.676C29.1249 17.268 29.0409 16.916 28.8729 16.62C28.7049 16.324 28.4849 16.1 28.2129 15.948C27.9489 15.796 27.6649 15.72 27.3609 15.72ZM35.2152 14.256C35.6872 14.256 36.1072 14.356 36.4752 14.556C36.8432 14.756 37.1392 15.032 37.3632 15.384V12.12H39.0432V21H37.3632V19.884C37.1312 20.26 36.8312 20.556 36.4632 20.772C36.1032 20.988 35.6872 21.096 35.2152 21.096C34.6472 21.096 34.1272 20.952 33.6552 20.664C33.1912 20.368 32.8192 19.96 32.5392 19.44C32.2672 18.92 32.1312 18.328 32.1312 17.664C32.1312 17 32.2672 16.412 32.5392 15.9C32.8192 15.38 33.1912 14.976 33.6552 14.688C34.1272 14.4 34.6472 14.256 35.2152 14.256ZM35.5992 15.72C35.3032 15.72 35.0192 15.796 34.7472 15.948C34.4832 16.1 34.2672 16.324 34.0992 16.62C33.9312 16.908 33.8472 17.256 33.8472 17.664C33.8472 18.072 33.9312 18.428 34.0992 18.732C34.2672 19.028 34.4832 19.252 34.7472 19.404C35.0192 19.556 35.3032 19.632 35.5992 19.632C35.9032 19.632 36.1872 19.556 36.4512 19.404C36.7232 19.252 36.9432 19.028 37.1112 18.732C37.2792 18.436 37.3632 18.084 37.3632 17.676C37.3632 17.268 37.2792 16.916 37.1112 16.62C36.9432 16.324 36.7232 16.1 36.4512 15.948C36.1872 15.796 35.9032 15.72 35.5992 15.72ZM50.1472 12.624V13.92H47.8792V21H46.1992V13.92H43.9432V12.624H50.1472ZM54.419 14.256C55.051 14.256 55.627 14.396 56.147 14.676C56.667 14.956 57.079 15.356 57.383 15.876C57.687 16.388 57.839 16.984 57.839 17.664C57.839 18.344 57.687 18.944 57.383 19.464C57.079 19.984 56.663 20.388 56.135 20.676C55.615 20.956 55.035 21.096 54.395 21.096C53.763 21.096 53.187 20.956 52.667 20.676C52.147 20.388 51.735 19.984 51.431 19.464C51.135 18.944 50.987 18.344 50.987 17.664C50.987 16.984 51.139 16.388 51.443 15.876C51.747 15.356 52.159 14.956 52.679 14.676C53.199 14.396 53.779 14.256 54.419 14.256ZM54.407 15.684C53.927 15.684 53.523 15.856 53.195 16.2C52.867 16.544 52.703 17.036 52.703 17.676C52.703 18.108 52.779 18.476 52.931 18.78C53.091 19.076 53.299 19.3 53.555 19.452C53.811 19.596 54.091 19.668 54.395 19.668C54.691 19.668 54.971 19.592 55.235 19.44C55.499 19.288 55.711 19.064 55.871 18.768C56.039 18.464 56.123 18.1 56.123 17.676C56.123 17.244 56.043 16.88 55.883 16.584C55.723 16.28 55.511 16.056 55.247 15.912C54.991 15.76 54.711 15.684 54.407 15.684ZM66.591 12.504C67.503 12.504 68.311 12.736 69.015 13.2C69.727 13.664 70.235 14.316 70.539 15.156H68.511C68.135 14.42 67.495 14.052 66.591 14.052C66.087 14.052 65.639 14.164 65.247 14.388C64.863 14.612 64.563 14.932 64.347 15.348C64.131 15.764 64.023 16.244 64.023 16.788C64.023 17.332 64.131 17.812 64.347 18.228C64.563 18.644 64.863 18.968 65.247 19.2C65.639 19.424 66.087 19.536 66.591 19.536C67.487 19.536 68.127 19.168 68.511 18.432H70.539C70.235 19.272 69.727 19.924 69.015 20.388C68.311 20.844 67.503 21.072 66.591 21.072C65.807 21.072 65.087 20.892 64.431 20.532C63.775 20.164 63.255 19.656 62.871 19.008C62.495 18.352 62.307 17.612 62.307 16.788C62.307 15.972 62.495 15.24 62.871 14.592C63.255 13.936 63.775 13.424 64.431 13.056C65.087 12.688 65.807 12.504 66.591 12.504ZM74.6137 14.256C75.0857 14.256 75.5057 14.356 75.8737 14.556C76.2417 14.756 76.5377 15.032 76.7617 15.384V14.352H78.4417V21H76.7617V19.884C76.5297 20.26 76.2297 20.556 75.8617 20.772C75.5017 20.988 75.0857 21.096 74.6137 21.096C74.0457 21.096 73.5257 20.952 73.0537 20.664C72.5897 20.368 72.2177 19.96 71.9377 19.44C71.6657 18.92 71.5297 18.328 71.5297 17.664C71.5297 17 71.6657 16.412 71.9377 15.9C72.2177 15.38 72.5897 14.976 73.0537 14.688C73.5257 14.4 74.0457 14.256 74.6137 14.256ZM74.9977 15.72C74.7017 15.72 74.4177 15.796 74.1457 15.948C73.8817 16.1 73.6657 16.324 73.4977 16.62C73.3297 16.908 73.2457 17.256 73.2457 17.664C73.2457 18.072 73.3297 18.428 73.4977 18.732C73.6657 19.028 73.8817 19.252 74.1457 19.404C74.4177 19.556 74.7017 19.632 74.9977 19.632C75.3017 19.632 75.5857 19.556 75.8497 19.404C76.1217 19.252 76.3417 19.028 76.5097 18.732C76.6777 18.436 76.7617 18.084 76.7617 17.676C76.7617 17.268 76.6777 16.916 76.5097 16.62C76.3417 16.324 76.1217 16.1 75.8497 15.948C75.5857 15.796 75.3017 15.72 74.9977 15.72ZM81.9279 15.528C82.1359 15.128 82.4039 14.816 82.7319 14.592C83.0679 14.368 83.4479 14.256 83.8719 14.256V15.984H83.4519C82.9479 15.984 82.5679 16.112 82.3119 16.368C82.0559 16.616 81.9279 17.048 81.9279 17.664V21H80.2359V14.352H81.9279V15.528ZM88.4598 19.584V21H87.3918C86.7118 21 86.1878 20.844 85.8198 20.532C85.4518 20.22 85.2678 19.704 85.2678 18.984V15.732H84.5598V14.352H85.2678V12.708H86.9598V14.352H88.4478V15.732H86.9598V18.984C86.9598 19.2 87.0118 19.356 87.1158 19.452C87.2198 19.54 87.3998 19.584 87.6558 19.584H88.4598Z" fill="white"/>
</svg>
