<svg width="20" height="20" viewBox="0 0 20 20" fill="none" xmlns="http://www.w3.org/2000/svg">
<path d="M9.97804 19.3125L8.6168 17.9698C7.38729 16.755 6.4798 15.8518 5.89432 15.2604C5.30884 14.669 4.60626 13.8937 3.78659 12.9346C2.96692 11.9755 2.37412 11.1923 2.0082 10.5849C1.64227 9.97746 1.32026 9.28213 1.04215 8.49888C0.764051 7.71563 0.625 6.94038 0.625 6.17311C0.625 4.60662 1.12266 3.27989 2.11797 2.19293C3.11329 1.10598 4.32816 0.5625 5.76259 0.5625C7.46048 0.5625 8.86563 1.28181 9.97804 2.72043C11.0905 1.28181 12.4956 0.5625 14.1935 0.5625C15.6572 0.5625 16.8867 1.10598 17.882 2.19293C18.8773 3.27989 19.375 4.60662 19.375 6.17311C19.375 6.94038 19.2286 7.71563 18.9359 8.49888C18.6432 9.28213 18.3211 9.97746 17.9698 10.5849C17.6186 11.1923 17.0258 11.9755 16.1915 12.9346C15.3571 13.8937 14.6546 14.669 14.0837 15.2604C13.5129 15.8518 12.5981 16.7709 11.3393 18.0177L9.97804 19.3125Z" fill="#5C5C5C"/>
</svg>
